<svg width="15" height="15" viewBox="0 0 15 15" fill="none" xmlns="http://www.w3.org/2000/svg">
<path d="M3.99935 6.66675L6.66602 0.666748C7.19645 0.666748 7.70516 0.877462 8.08023 1.25253C8.4553 1.62761 8.66602 2.13632 8.66602 2.66675V5.33341H12.4393C12.6326 5.33123 12.8241 5.37108 13.0004 5.45023C13.1767 5.52937 13.3338 5.6459 13.4606 5.79176C13.5874 5.93761 13.681 6.1093 13.7349 6.29492C13.7888 6.48054 13.8017 6.67565 13.7727 6.86675L12.8527 12.8667C12.8045 13.1847 12.643 13.4745 12.398 13.6828C12.1529 13.891 11.8409 14.0037 11.5193 14.0001H3.99935M3.99935 6.66675V14.0001M3.99935 6.66675H1.99935C1.64573 6.66675 1.30659 6.80722 1.05654 7.05727C0.806491 7.30732 0.666016 7.64646 0.666016 8.00008V12.6667C0.666016 13.0204 0.806491 13.3595 1.05654 13.6096C1.30659 13.8596 1.64573 14.0001 1.99935 14.0001H3.99935" stroke="#ADADAD" stroke-width="1.33333" stroke-linecap="round" stroke-linejoin="round"/>
</svg>
